<svg width="211" height="40" viewBox="0 0 211 40" fill="none" xmlns="http://www.w3.org/2000/svg">
<path d="M27.99 31.1976C25.8215 28.3732 27.3782 24.2043 29.7341 21.5343C31.6366 19.3782 32.6278 16.5643 32.6278 13.3333C32.6278 5.65499 27.4053 0.881969 18.5632 0.881969C8.31103 0.881969 0 9.193 0 19.4452V34.4133C0 37.1263 2.1993 39.3256 4.91227 39.3256C7.62524 39.3256 9.82453 37.1263 9.82453 34.4133V28.4623C9.82453 27.1554 10.884 26.096 12.1909 26.096C12.946 26.096 13.6558 26.4564 14.1014 27.066L21.7424 37.5204C22.5716 38.6549 23.8925 39.3256 25.2977 39.3256C28.9494 39.3256 31.0144 35.1366 28.7905 32.2401L27.99 31.1976ZM16.65 8.76783C20.6315 8.76783 22.5964 10.4799 22.5964 13.9559C22.5964 17.1206 20.373 19.0921 16.4432 19.0921H14.9867C12.1357 19.0921 9.82453 16.7809 9.82453 13.93C9.82453 11.079 12.1357 8.76783 14.9867 8.76783H16.65Z" fill="#DD6B20"/>
<path d="M24.4288 33.0072C23.2298 36.0392 25.4642 39.3256 28.7246 39.3256C30.6679 39.3256 32.4066 38.1003 33.07 36.2738C33.7374 34.4363 35.4867 33.2036 37.4417 33.2036H47.7764C49.7395 33.2036 51.4988 34.433 52.1827 36.2731C52.8627 38.103 54.6122 39.3256 56.5644 39.3256C59.8658 39.3256 62.1254 35.9939 60.9042 32.9266L50.1807 5.99189C48.9523 2.90659 45.9671 0.881969 42.6462 0.881969C39.3185 0.881969 36.3286 2.91488 35.1048 6.00942L24.4288 33.0072ZM46.5495 20.2931C47.5499 23.0075 45.5412 25.8885 42.6483 25.8885C39.7505 25.8885 37.7415 22.9983 38.7512 20.2821C40.096 16.6647 45.2149 16.672 46.5495 20.2931Z" fill="#DD6B20"/>
<path d="M70.9814 0.881969C61.843 0.881969 54.4349 8.29012 54.4349 17.4285V23.1409C54.4349 32.0795 61.681 39.3256 70.6195 39.3256C76.7727 39.3256 81.7367 37.5616 85.408 34.0856C89.0793 30.5577 90.9408 25.8885 90.9408 20.0778C90.9408 14.3191 89.131 9.6498 85.5114 6.1738C81.8918 2.64591 77.0313 0.881969 70.9814 0.881969ZM69.4819 31.4397C66.4834 31.4397 64.0526 29.0089 64.0526 26.0103V14.3009C64.0526 11.3024 66.4834 8.87159 69.4819 8.87159C77.083 8.87159 80.9094 12.8145 80.9094 20.1297C80.9094 27.3411 76.721 31.4397 69.4819 31.4397Z" fill="#DD6B20"/>
<path d="M107.49 6.70869C104.719 14.4777 93.7323 14.4777 90.9619 6.70869L90.0303 4.09615C89.343 2.16882 87.5179 0.881969 85.4717 0.881969C82.0511 0.881969 79.71 4.33388 80.9753 7.51187L91.5756 34.1372C92.8228 37.2698 95.8539 39.3256 99.2258 39.3256C102.598 39.3256 105.629 37.2698 106.876 34.1372L117.476 7.51186C118.742 4.33387 116.4 0.881969 112.98 0.881969C110.934 0.881969 109.108 2.16882 108.421 4.09614L107.49 6.70869Z" fill="#DD6B20"/>
<path d="M140.305 4.77302C140.305 2.62405 138.563 0.881969 136.414 0.881969H125.724C117.67 0.881969 111.142 7.41041 111.142 15.4636V24.7439C111.142 32.7971 117.67 39.3256 125.724 39.3256H136.414C138.563 39.3256 140.305 37.5835 140.305 35.4345C140.305 33.2855 138.563 31.5434 136.414 31.5434H124.444C122.323 31.5434 120.605 29.8246 120.605 27.7043C120.605 25.584 122.323 23.8651 124.444 23.8651H133.933C136.024 23.8651 137.72 22.1695 137.72 20.0778C137.72 17.9862 136.024 16.2905 133.933 16.2905H124.418C122.312 16.2905 120.605 14.5833 120.605 12.4773C120.605 10.3713 122.312 8.66407 124.418 8.66407H136.414C138.563 8.66407 140.305 6.92199 140.305 4.77302Z" fill="#DD6B20"/>
<path d="M161.451 31.1976C159.283 28.3732 160.84 24.2043 163.195 21.5343C165.098 19.3782 166.089 16.5643 166.089 13.3333C166.089 5.65499 160.867 0.881969 152.025 0.881969C141.772 0.881969 133.461 9.193 133.461 19.4452V34.4133C133.461 37.1263 135.661 39.3256 138.374 39.3256C141.087 39.3256 143.286 37.1263 143.286 34.4133V28.4623C143.286 27.1554 144.345 26.096 145.652 26.096C146.407 26.096 147.117 26.4564 147.563 27.066L155.204 37.5204C156.033 38.6549 157.354 39.3256 158.759 39.3256C162.411 39.3256 164.476 35.1366 162.252 32.2401L161.451 31.1976ZM150.111 8.76783C154.093 8.76783 156.058 10.4799 156.058 13.9559C156.058 17.1206 153.834 19.0921 149.905 19.0921H148.448C145.597 19.0921 143.286 16.7809 143.286 13.93C143.286 11.079 145.597 8.76783 148.448 8.76783H150.111Z" fill="#DD6B20"/>
<path d="M174.368 0C169.456 0 165.526 1.03761 162.579 3.11284C159.683 5.13619 158.236 7.98962 158.236 11.6731C158.236 14.8379 159.683 17.5357 161.338 19.144C162.165 19.9222 163.251 20.7004 164.647 21.4267C166.043 22.1012 167.233 22.62 168.215 22.9831L171.886 24.1245C177.109 25.5772 179.229 26.511 179.229 28.5862C179.229 30.7134 176.437 32.0104 172.714 32.0104C170.49 32.0104 168.215 31.6472 165.888 30.9728C165.472 30.8521 165.069 30.7264 164.678 30.596C162.211 29.7723 159.306 30.9003 158.529 33.383C157.964 35.1895 158.725 37.1646 160.497 37.8318C163.849 39.0947 168.33 40 172.869 40C177.781 40 181.711 39.0143 184.607 36.9909C187.502 34.9676 188.95 31.9585 188.95 27.9637C188.95 25.6291 188.226 23.5538 187.399 22.153C186.623 20.7004 184.607 19.2996 183.366 18.5214C182.745 18.1582 181.814 17.7432 180.625 17.2763C179.436 16.8093 178.453 16.4462 177.781 16.2386L174.627 15.3048C169.922 13.904 168.215 13.1258 168.215 11.2062C168.215 9.18288 170.594 7.98962 174.472 7.98962C176.862 7.98962 179.159 8.25141 181.363 8.7862C183.674 9.34691 186.191 8.15311 186.803 5.85535C187.295 4.00704 186.376 2.04862 184.55 1.47754C181.402 0.492512 178.001 0 174.368 0Z" fill="#DD6B20"/>
<path d="M211 4.77302C211 2.62405 209.258 0.881969 207.109 0.881969H196.418C188.365 0.881969 181.837 7.41041 181.837 15.4636V24.7439C181.837 32.7971 188.365 39.3256 196.418 39.3256H207.109C209.258 39.3256 211 37.5835 211 35.4345C211 33.2855 209.258 31.5434 207.109 31.5434H195.138C193.018 31.5434 191.299 29.8246 191.299 27.7043C191.299 25.584 193.018 23.8651 195.138 23.8651H204.627C206.719 23.8651 208.415 22.1695 208.415 20.0778C208.415 17.9862 206.719 16.2905 204.627 16.2905H195.112C193.006 16.2905 191.299 14.5833 191.299 12.4773C191.299 10.3713 193.006 8.66407 195.112 8.66407H207.109C209.258 8.66407 211 6.92199 211 4.77302Z" fill="#DD6B20"/>
</svg>
